<?xml version="1.0" standalone="no"?><!DOCTYPE svg PUBLIC "-//W3C//DTD SVG 1.1//EN" "http://www.w3.org/Graphics/SVG/1.1/DTD/svg11.dtd"><svg t="1697254444309" class="icon" viewBox="0 0 1024 1024" version="1.1" xmlns="http://www.w3.org/2000/svg" p-id="4034" xmlns:xlink="http://www.w3.org/1999/xlink" width="200" height="200"><path d="M788.48 0H235.52c-66.56 0-117.76 51.2-117.76 117.76v788.48c0 66.56 51.2 117.76 117.76 117.76h384l286.72-250.88V117.76C906.24 51.2 849.92 0 788.48 0zM593.92 967.68V752.64h245.76L593.92 967.68zM844.8 691.2H537.6v271.36H256c-40.96 0-76.8-35.84-76.8-76.8V138.24c0-40.96 35.84-76.8 76.8-76.8h512c40.96 0 76.8 35.84 76.8 76.8V691.2zM312.32 240.64h394.24v56.32H312.32v-56.32z m0 220.16h394.24v56.32H312.32V460.8zM665.6 35.84h35.84-35.84z" fill="#333333" p-id="4035"></path></svg>