<?xml version="1.0" encoding="UTF-8"?>
<!DOCTYPE svg PUBLIC "-//W3C//DTD SVG 1.1//EN" "http://www.w3.org/Graphics/SVG/1.1/DTD/svg11.dtd">
<svg xmlns="http://www.w3.org/2000/svg" version="1.1" width="128px" height="128px" style="shape-rendering:geometricPrecision; text-rendering:geometricPrecision; image-rendering:optimizeQuality; fill-rule:evenodd; clip-rule:evenodd" xmlns:xlink="http://www.w3.org/1999/xlink">
<g><path style="opacity:1" fill="#fdfdfd" d="M -0.5,-0.5 C 42.1667,-0.5 84.8333,-0.5 127.5,-0.5C 127.5,42.1667 127.5,84.8333 127.5,127.5C 84.8333,127.5 42.1667,127.5 -0.5,127.5C -0.5,84.8333 -0.5,42.1667 -0.5,-0.5 Z"/></g>
<g><path style="opacity:1" fill="#5e5e5e" d="M 117.5,74.5 C 117.5,59.1667 117.5,43.8333 117.5,28.5C 112.833,28.5 108.167,28.5 103.5,28.5C 104.15,43.8706 103.484,58.8706 101.5,73.5C 102.483,58.2446 102.817,42.9112 102.5,27.5C 107.833,27.5 113.167,27.5 118.5,27.5C 118.83,43.3422 118.496,59.0089 117.5,74.5 Z"/></g>
<g><path style="opacity:1" fill="#3c3c3e" d="M 101.5,73.5 C 103.484,58.8706 104.15,43.8706 103.5,28.5C 108.167,28.5 112.833,28.5 117.5,28.5C 117.5,43.8333 117.5,59.1667 117.5,74.5C 115.56,80.6116 111.893,85.4449 106.5,89C 93.2422,96.8976 78.9089,100.231 63.5,99C 56.1008,95.8134 50.1008,90.9801 45.5,84.5C 43.3621,89.5752 41.0287,94.5752 38.5,99.5C 27.8541,100.499 17.1874,100.832 6.5,100.5C 6.34332,99.1266 6.50999,97.7932 7,96.5C 17.8813,74.0716 28.2146,51.405 38,28.5C 51.4208,27.5103 64.9208,27.177 78.5,27.5C 78.3334,42.5037 78.5001,57.5037 79,72.5C 81.5251,75.9652 85.0251,77.6319 89.5,77.5C 93.8884,77.1484 97.8884,75.815 101.5,73.5 Z"/></g>
<g><path style="opacity:1" fill="#fafafb" d="M 43.5,36.5 C 52.1667,36.5 60.8333,36.5 69.5,36.5C 69.0556,49.9071 69.5556,63.2404 71,76.5C 74.3065,83.2354 79.8065,86.5687 87.5,86.5C 74.8507,94.4189 63.684,92.7523 54,81.5C 52.6905,77.9296 51.8572,74.263 51.5,70.5C 48.2234,70.2161 45.0567,70.5495 42,71.5C 38.6734,77.9852 35.5068,84.4852 32.5,91C 28.1287,91.8275 23.7953,91.6609 19.5,90.5C 28.0612,72.7142 36.0612,54.7142 43.5,36.5 Z"/></g>
<g><path style="opacity:1" fill="#454546" d="M 50.5,51.5 C 51.4872,56.3054 51.8205,61.3054 51.5,66.5C 49.076,66.8076 46.7427,66.4742 44.5,65.5C 46.5123,60.8119 48.5123,56.1452 50.5,51.5 Z"/></g>
</svg>
